<svg version="1" xmlns="http://www.w3.org/2000/svg" width="24" height="24" viewBox="0 0 24 24"><path d="M0 0h24v24h-24v-24z" fill="none"/><path d="M12 2c-5.5 0-10 4.5-10 10s4.5 10 10 10 10-4.5 10-10-4.5-10-10-10zm0 19c-5 0-9-4-9-9s4-9 9-9 9 4 9 9-4 9-9 9zM7.7 15.5c0 .4.1.8.4 1.1.3.3.6.4 1 .4s.8-.2 1.1-.5c.3-.3.5-.7.5-1.1v-5.4l4-.7v4.2c-.2-.1-.4-.1-.6-.1-.4 0-.8.2-1.1.5-.3.3-.5.7-.5 1.1 0 .4.1.8.4 1 .3.3.6.4 1 .4s.8-.2 1.1-.5c.3-.3.5-.7.5-1.1v-7.8l-5.6 1v6c-.2-.1-.4-.1-.6-.1-.5 0-.8.2-1.2.5-.3.3-.4.7-.4 1.1z"/></svg>